<?xml version="1.0" encoding="UTF-8"?>
<!DOCTYPE svg PUBLIC "-//W3C//DTD SVG 1.1//EN" "http://www.w3.org/Graphics/SVG/1.1/DTD/svg11.dtd">
<svg xmlns="http://www.w3.org/2000/svg" version="1.1" width="500px" height="500px" style="shape-rendering:geometricPrecision; text-rendering:geometricPrecision; image-rendering:optimizeQuality; fill-rule:evenodd; clip-rule:evenodd" xmlns:xlink="http://www.w3.org/1999/xlink">
<g><path style="opacity:1" fill="#fefefe" d="M -0.5,-0.5 C 166.167,-0.5 332.833,-0.5 499.5,-0.5C 499.5,166.167 499.5,332.833 499.5,499.5C 332.833,499.5 166.167,499.5 -0.5,499.5C -0.5,332.833 -0.5,166.167 -0.5,-0.5 Z"/></g>
<g><path style="opacity:1" fill="#028038" d="M 213.5,48.5 C 237.169,48.3334 260.836,48.5 284.5,49C 290.327,50.1624 295.16,52.9958 299,57.5C 314.333,84.1667 329.667,110.833 345,137.5C 345.33,140.866 344.997,144.199 344,147.5C 340.206,159.341 337.04,171.341 334.5,183.5C 319.058,180.515 303.892,176.515 289,171.5C 267.667,134.167 246.333,96.8333 225,59.5C 221.959,54.3908 217.459,51.3908 211.5,50.5C 212.243,49.8182 212.909,49.1515 213.5,48.5 Z"/></g>
<g><path style="opacity:1" fill="#7ed958" d="M 206.5,55.5 C 211.436,55.3105 215.602,56.9772 219,60.5C 228.805,75.9404 237.972,91.7738 246.5,108C 234.219,130.063 221.552,151.896 208.5,173.5C 189.798,162.485 171.131,151.485 152.5,140.5C 167.788,113.421 183.455,86.5872 199.5,60C 201.76,58.2117 204.093,56.7117 206.5,55.5 Z"/></g>
<g><path style="opacity:1" fill="#038038" d="M 167.5,168.5 C 169.167,168.5 170.833,168.5 172.5,168.5C 176.492,183.464 179.992,198.464 183,213.5C 160.747,251.67 138.747,290.004 117,328.5C 116.675,332.67 116.509,336.67 116.5,340.5C 114.142,338.976 112.309,336.976 111,334.5C 100.08,315.662 89.4133,296.662 79,277.5C 78.3333,273.167 78.3333,268.833 79,264.5C 94.3995,236.703 110.066,209.036 126,181.5C 126.903,180.299 128.069,179.465 129.5,179C 142.388,175.781 155.055,172.281 167.5,168.5 Z"/></g>
<g><path style="opacity:1" fill="#7ed958" d="M 371.5,171.5 C 372.822,171.33 373.989,171.663 375,172.5C 389.414,198.329 404.08,223.996 419,249.5C 421.895,258.652 419.062,265.152 410.5,269C 391.833,269.667 373.167,269.667 354.5,269C 342.46,247.752 330.293,226.585 318,205.5C 317.251,204.365 317.417,203.365 318.5,202.5C 336.394,192.392 354.061,182.059 371.5,171.5 Z"/></g>
<g><path style="opacity:1" fill="#3590f0" d="M 260.5,178.5 C 259.508,178.328 258.842,178.662 258.5,179.5C 255.904,180.209 253.237,179.875 250.5,178.5C 248.208,178.756 246.041,178.423 244,177.5C 241.337,179.249 238.503,180.582 235.5,181.5C 234.508,181.328 233.842,181.662 233.5,182.5C 231.816,183.527 230.149,184.527 228.5,185.5C 228.557,184.391 228.89,183.391 229.5,182.5C 233.259,179.626 237.593,177.792 242.5,177C 248.743,176.187 254.743,176.687 260.5,178.5 Z"/></g>
<g><path style="opacity:1" fill="#b8e994" d="M 250.5,178.5 C 249.391,179.29 248.058,179.79 246.5,180C 249.215,180.875 250.548,182.708 250.5,185.5C 249.132,187.564 248.132,189.898 247.5,192.5C 244.11,189.68 242.443,186.014 242.5,181.5C 239.995,182.417 237.662,182.417 235.5,181.5C 238.503,180.582 241.337,179.249 244,177.5C 246.041,178.423 248.208,178.756 250.5,178.5 Z"/></g>
<g><path style="opacity:1" fill="#d4f4b7" d="M 233.5,182.5 C 235.379,183.341 237.379,183.675 239.5,183.5C 239.383,185.484 240.05,187.15 241.5,188.5C 240.297,192.951 238.297,193.451 235.5,190C 237.26,189.035 237.594,187.868 236.5,186.5C 235.05,187.85 234.383,189.516 234.5,191.5C 230.998,191.167 228.664,192.667 227.5,196C 229.783,197.618 231.283,199.785 232,202.5C 233.199,199.274 233.699,195.941 233.5,192.5C 235.911,192.137 237.411,193.137 238,195.5C 238.414,195.043 238.914,194.709 239.5,194.5C 242.466,197.604 244.799,201.104 246.5,205C 245.552,205.483 244.552,205.649 243.5,205.5C 243.719,204.325 243.386,203.325 242.5,202.5C 241.205,203.098 239.872,203.598 238.5,204C 239.989,205.468 241.323,206.968 242.5,208.5C 240.821,208.892 239.154,209.392 237.5,210C 236.837,211.518 235.837,212.685 234.5,213.5C 229.21,211.428 224.376,208.428 220,204.5C 219.322,200.779 219.489,197.112 220.5,193.5C 222.86,190.473 225.527,187.806 228.5,185.5C 230.149,184.527 231.816,183.527 233.5,182.5 Z"/></g>
<g><path style="opacity:1" fill="#7dd635" d="M 229.5,182.5 C 228.89,183.391 228.557,184.391 228.5,185.5C 225.527,187.806 222.86,190.473 220.5,193.5C 218.263,195.647 216.263,197.98 214.5,200.5C 215.227,198.046 216.227,195.713 217.5,193.5C 219.275,188.077 223.275,184.41 229.5,182.5 Z"/></g>
<g><path style="opacity:1" fill="#acd6fb" d="M 233.5,182.5 C 233.842,181.662 234.508,181.328 235.5,181.5C 237.662,182.417 239.995,182.417 242.5,181.5C 242.443,186.014 244.11,189.68 247.5,192.5C 248.132,189.898 249.132,187.564 250.5,185.5C 251.058,188.344 251.725,191.178 252.5,194C 251.696,198.773 249.696,202.94 246.5,206.5C 245.378,207.63 244.044,208.297 242.5,208.5C 241.323,206.968 239.989,205.468 238.5,204C 239.872,203.598 241.205,203.098 242.5,202.5C 243.386,203.325 243.719,204.325 243.5,205.5C 244.552,205.649 245.552,205.483 246.5,205C 244.799,201.104 242.466,197.604 239.5,194.5C 238.914,194.709 238.414,195.043 238,195.5C 237.411,193.137 235.911,192.137 233.5,192.5C 233.699,195.941 233.199,199.274 232,202.5C 231.283,199.785 229.783,197.618 227.5,196C 228.664,192.667 230.998,191.167 234.5,191.5C 234.383,189.516 235.05,187.85 236.5,186.5C 237.594,187.868 237.26,189.035 235.5,190C 238.297,193.451 240.297,192.951 241.5,188.5C 240.05,187.15 239.383,185.484 239.5,183.5C 237.379,183.675 235.379,183.341 233.5,182.5 Z"/></g>
<g><path style="opacity:1" fill="#275678" d="M 289.5,201.5 C 290.401,202.29 291.068,203.29 291.5,204.5C 290.732,205.263 290.232,206.263 290,207.5C 289,206.167 288,204.833 287,203.5C 286.333,204.167 285.667,204.833 285,205.5C 284.163,203.649 283.329,201.816 282.5,200C 283,199.5 283.5,199 284,198.5C 285.264,200.607 287.097,201.607 289.5,201.5 Z"/></g>
<g><path style="opacity:1" fill="#1b5997" d="M 275.5,195.5 C 277.314,196.772 278.98,198.272 280.5,200C 279.572,200.388 278.905,201.055 278.5,202C 279.856,203.567 280.523,205.4 280.5,207.5C 281.791,207.263 282.791,207.596 283.5,208.5C 278.616,225.936 267.616,237.603 250.5,243.5C 248.851,242.527 247.184,241.527 245.5,240.5C 243.197,241.529 240.864,241.529 238.5,240.5C 240.607,239.532 242.941,239.198 245.5,239.5C 245.5,238.167 245.5,236.833 245.5,235.5C 253.606,234.233 260.439,230.566 266,224.5C 272.934,215.87 276.1,206.203 275.5,195.5 Z"/></g>
<g><path style="opacity:1" fill="#71ce22" d="M 258.5,179.5 C 258.842,178.662 259.508,178.328 260.5,178.5C 274.045,181.388 283.712,189.055 289.5,201.5C 287.097,201.607 285.264,200.607 284,198.5C 283.5,199 283,199.5 282.5,200C 283.329,201.816 284.163,203.649 285,205.5C 285.667,204.833 286.333,204.167 287,203.5C 288,204.833 289,206.167 290,207.5C 290.232,206.263 290.732,205.263 291.5,204.5C 295.537,215.832 295.37,227.165 291,238.5C 290.303,240.584 289.136,242.251 287.5,243.5C 289.07,240.3 289.904,236.967 290,233.5C 286.594,237.652 284.261,236.986 283,231.5C 282.459,223.818 282.626,216.152 283.5,208.5C 282.791,207.596 281.791,207.263 280.5,207.5C 280.523,205.4 279.856,203.567 278.5,202C 278.905,201.055 279.572,200.388 280.5,200C 278.98,198.272 277.314,196.772 275.5,195.5C 275.167,195.5 274.833,195.5 274.5,195.5C 272.162,194.49 270.496,192.823 269.5,190.5C 269.369,189.761 269.536,189.094 270,188.5C 271.586,189.376 273.086,190.376 274.5,191.5C 274.833,191.167 275.167,190.833 275.5,190.5C 270.064,186.382 264.398,182.716 258.5,179.5 Z"/></g>
<g><path style="opacity:1" fill="#6eb2f5" d="M 250.5,178.5 C 253.237,179.875 255.904,180.209 258.5,179.5C 264.398,182.716 270.064,186.382 275.5,190.5C 275.167,190.833 274.833,191.167 274.5,191.5C 273.086,190.376 271.586,189.376 270,188.5C 269.536,189.094 269.369,189.761 269.5,190.5C 268.25,190.423 267.417,189.756 267,188.5C 266.792,192.918 266.126,197.251 265,201.5C 263.838,203.838 262.004,205.172 259.5,205.5C 253.96,215.612 245.293,220.612 233.5,220.5C 233.448,218.097 233.781,215.764 234.5,213.5C 235.837,212.685 236.837,211.518 237.5,210C 239.154,209.392 240.821,208.892 242.5,208.5C 244.044,208.297 245.378,207.63 246.5,206.5C 249.696,202.94 251.696,198.773 252.5,194C 251.725,191.178 251.058,188.344 250.5,185.5C 250.548,182.708 249.215,180.875 246.5,180C 248.058,179.79 249.391,179.29 250.5,178.5 Z"/></g>
<g><path style="opacity:1" fill="#a8e28a" d="M 258.5,184.5 C 259.995,184.415 260.995,185.081 261.5,186.5C 258.623,187.911 257.623,187.244 258.5,184.5 Z"/></g>
<g><path style="opacity:1" fill="#b8ec86" d="M 220.5,193.5 C 219.489,197.112 219.322,200.779 220,204.5C 224.376,208.428 229.21,211.428 234.5,213.5C 233.781,215.764 233.448,218.097 233.5,220.5C 232.272,221.306 231.272,222.306 230.5,223.5C 227.477,221.136 224.144,218.969 220.5,217C 218.584,213.415 215.751,210.915 212,209.5C 211.617,210.056 211.117,210.389 210.5,210.5C 211.54,206.958 212.874,203.625 214.5,200.5C 216.263,197.98 218.263,195.647 220.5,193.5 Z"/></g>
<g><path style="opacity:1" fill="#1d4c7a" d="M 283.5,208.5 C 282.626,216.152 282.459,223.818 283,231.5C 284.261,236.986 286.594,237.652 290,233.5C 289.904,236.967 289.07,240.3 287.5,243.5C 280.541,255.169 270.208,262.169 256.5,264.5C 258.127,262.37 259.96,260.37 262,258.5C 262.981,255.88 264.147,253.38 265.5,251C 265.355,250.228 265.022,249.561 264.5,249C 262.444,248.689 260.444,248.189 258.5,247.5C 257.833,247.833 257.167,248.167 256.5,248.5C 255.738,247.372 255.071,246.205 254.5,245C 252.942,244.79 251.609,244.29 250.5,243.5C 267.616,237.603 278.616,225.936 283.5,208.5 Z"/></g>
<g><path style="opacity:1" fill="#387cc9" d="M 217.5,193.5 C 216.227,195.713 215.227,198.046 214.5,200.5C 212.874,203.625 211.54,206.958 210.5,210.5C 210.187,214.042 210.521,217.375 211.5,220.5C 211.207,223.754 211.874,226.754 213.5,229.5C 212.504,229.586 211.671,229.252 211,228.5C 210.482,225.977 209.148,223.977 207,222.5C 206.517,223.448 206.351,224.448 206.5,225.5C 204.711,214.321 207.211,203.988 214,194.5C 215.011,193.663 216.178,193.33 217.5,193.5 Z"/></g>
<g><path style="opacity:1" fill="#a2e564" d="M 230.5,223.5 C 231.052,225.331 231.052,226.997 230.5,228.5C 229.738,227.372 229.071,226.205 228.5,225C 226.512,224.82 224.512,224.986 222.5,225.5C 221.047,224.175 221.381,223.342 223.5,223C 218.896,221.718 215.063,219.218 212,215.5C 211.506,217.134 211.34,218.801 211.5,220.5C 210.521,217.375 210.187,214.042 210.5,210.5C 211.117,210.389 211.617,210.056 212,209.5C 215.751,210.915 218.584,213.415 220.5,217C 224.144,218.969 227.477,221.136 230.5,223.5 Z"/></g>
<g><path style="opacity:1" fill="#408edb" d="M 269.5,190.5 C 270.496,192.823 272.162,194.49 274.5,195.5C 273.25,195.577 272.417,196.244 272,197.5C 271,200.833 270,204.167 269,207.5C 263.706,211.584 259.206,216.417 255.5,222C 248.449,225.184 241.116,227.684 233.5,229.5C 234.376,230.251 235.376,230.751 236.5,231C 235.584,231.278 234.918,231.778 234.5,232.5C 232.751,230.469 230.751,230.135 228.5,231.5C 228.586,230.504 228.252,229.671 227.5,229C 225.527,228.505 223.527,228.338 221.5,228.5C 221.5,229.5 221.5,230.5 221.5,231.5C 220.861,230.903 220.528,230.07 220.5,229C 220.387,227.301 221.053,226.134 222.5,225.5C 224.512,224.986 226.512,224.82 228.5,225C 229.071,226.205 229.738,227.372 230.5,228.5C 231.052,226.997 231.052,225.331 230.5,223.5C 231.272,222.306 232.272,221.306 233.5,220.5C 245.293,220.612 253.96,215.612 259.5,205.5C 262.004,205.172 263.838,203.838 265,201.5C 266.126,197.251 266.792,192.918 267,188.5C 267.417,189.756 268.25,190.423 269.5,190.5 Z"/></g>
<g><path style="opacity:1" fill="#1e69b3" d="M 274.5,195.5 C 274.833,195.5 275.167,195.5 275.5,195.5C 276.1,206.203 272.934,215.87 266,224.5C 260.439,230.566 253.606,234.233 245.5,235.5C 245.5,236.833 245.5,238.167 245.5,239.5C 242.941,239.198 240.607,239.532 238.5,240.5C 234.64,244.719 231.973,243.886 230.5,238C 229.552,237.517 228.552,237.351 227.5,237.5C 227.712,232.557 226.712,231.89 224.5,235.5C 222.712,234.717 221.712,233.384 221.5,231.5C 221.5,230.5 221.5,229.5 221.5,228.5C 223.527,228.338 225.527,228.505 227.5,229C 228.252,229.671 228.586,230.504 228.5,231.5C 229.609,232.29 230.942,232.79 232.5,233C 233.071,234.205 233.738,235.372 234.5,236.5C 235.192,235.975 235.692,235.308 236,234.5C 238.064,235.591 240.231,235.758 242.5,235C 239.92,233.856 237.253,233.022 234.5,232.5C 234.918,231.778 235.584,231.278 236.5,231C 235.376,230.751 234.376,230.251 233.5,229.5C 241.116,227.684 248.449,225.184 255.5,222C 259.206,216.417 263.706,211.584 269,207.5C 270,204.167 271,200.833 272,197.5C 272.417,196.244 273.25,195.577 274.5,195.5 Z"/></g>
<g><path style="opacity:1" fill="#5ea67b" d="M 234.5,232.5 C 237.253,233.022 239.92,233.856 242.5,235C 240.231,235.758 238.064,235.591 236,234.5C 235.692,235.308 235.192,235.975 234.5,236.5C 233.738,235.372 233.071,234.205 232.5,233C 230.942,232.79 229.609,232.29 228.5,231.5C 230.751,230.135 232.751,230.469 234.5,232.5 Z"/></g>
<g><path style="opacity:1" fill="#1d4f80" d="M 213.5,229.5 C 215.666,231.837 217.666,234.337 219.5,237C 225.477,239.322 231.144,242.155 236.5,245.5C 236.017,252.552 239.35,257.052 246.5,259C 248.3,260.812 249.967,262.645 251.5,264.5C 233.658,264.495 220.158,256.829 211,241.5C 208.582,236.414 207.082,231.081 206.5,225.5C 206.351,224.448 206.517,223.448 207,222.5C 209.148,223.977 210.482,225.977 211,228.5C 211.671,229.252 212.504,229.586 213.5,229.5 Z"/></g>
<g><path style="opacity:1" fill="#73d11f" d="M 222.5,225.5 C 221.053,226.134 220.387,227.301 220.5,229C 220.528,230.07 220.861,230.903 221.5,231.5C 221.712,233.384 222.712,234.717 224.5,235.5C 226.712,231.89 227.712,232.557 227.5,237.5C 228.552,237.351 229.552,237.517 230.5,238C 231.973,243.886 234.64,244.719 238.5,240.5C 240.864,241.529 243.197,241.529 245.5,240.5C 247.184,241.527 248.851,242.527 250.5,243.5C 251.609,244.29 252.942,244.79 254.5,245C 255.071,246.205 255.738,247.372 256.5,248.5C 257.167,248.167 257.833,247.833 258.5,247.5C 260.444,248.189 262.444,248.689 264.5,249C 265.022,249.561 265.355,250.228 265.5,251C 264.147,253.38 262.981,255.88 262,258.5C 259.96,260.37 258.127,262.37 256.5,264.5C 254.833,264.5 253.167,264.5 251.5,264.5C 249.967,262.645 248.3,260.812 246.5,259C 239.35,257.052 236.017,252.552 236.5,245.5C 231.144,242.155 225.477,239.322 219.5,237C 217.666,234.337 215.666,231.837 213.5,229.5C 211.874,226.754 211.207,223.754 211.5,220.5C 211.34,218.801 211.506,217.134 212,215.5C 215.063,219.218 218.896,221.718 223.5,223C 221.381,223.342 221.047,224.175 222.5,225.5 Z"/></g>
<g><path style="opacity:1" fill="#038038" d="M 418.5,267.5 C 419.613,268.946 419.78,270.613 419,272.5C 408.333,291.167 397.667,309.833 387,328.5C 383.206,333.95 378.039,337.45 371.5,339C 339.167,339.667 306.833,339.667 274.5,339C 264.349,328.015 254.016,317.182 243.5,306.5C 253.986,295.514 264.652,284.681 275.5,274C 320.499,274.117 365.499,274.117 410.5,274C 413.961,272.695 416.628,270.529 418.5,267.5 Z"/></g>
<g><path style="opacity:1" fill="#7ed957" d="M 150.5,280.5 C 176.5,280.5 202.5,280.5 228.5,280.5C 228.5,302.833 228.5,325.167 228.5,347.5C 195.832,347.667 163.165,347.5 130.5,347C 123.262,343.345 120.762,337.512 123,329.5C 132.179,313.139 141.345,296.806 150.5,280.5 Z"/></g>
<g><path style="opacity:1" fill="#10833d" d="M 377.5,404.5 C 380.833,404.5 384.167,404.5 387.5,404.5C 387.5,418.833 387.5,433.167 387.5,447.5C 384.167,447.5 380.833,447.5 377.5,447.5C 377.5,433.167 377.5,418.833 377.5,404.5 Z"/></g>
<g><path style="opacity:1" fill="#0f833c" d="M 72.5,406.5 C 76.1064,406.211 79.6064,406.544 83,407.5C 84.8547,416.252 87.0214,424.919 89.5,433.5C 92.3031,424.621 94.6364,415.621 96.5,406.5C 100.5,406.5 104.5,406.5 108.5,406.5C 110.665,415.827 112.832,425.16 115,434.5C 117.155,425.226 118.988,415.892 120.5,406.5C 124.167,406.5 127.833,406.5 131.5,406.5C 128.211,420.282 124.544,433.949 120.5,447.5C 116.5,447.5 112.5,447.5 108.5,447.5C 107.055,438.995 104.888,430.662 102,422.5C 99.3583,430.398 97.025,438.398 95,446.5C 91.2136,447.795 87.3803,447.795 83.5,446.5C 79.426,433.278 75.7593,419.945 72.5,406.5 Z"/></g>
<g><path style="opacity:1" fill="#08823a" d="M 202.5,406.5 C 209.175,406.334 215.842,406.5 222.5,407C 232.322,409.807 235.488,415.974 232,425.5C 230.062,428.106 227.562,429.939 224.5,431C 227.833,436.333 231.167,441.667 234.5,447C 230.5,447.667 226.5,447.667 222.5,447C 219.459,441.75 216.292,436.583 213,431.5C 212.501,436.823 212.334,442.156 212.5,447.5C 209.167,447.5 205.833,447.5 202.5,447.5C 202.5,433.833 202.5,420.167 202.5,406.5 Z"/></g>
<g><path style="opacity:1" fill="#f2f9f5" d="M 212.5,414.5 C 215.518,414.335 218.518,414.502 221.5,415C 224.311,418.294 223.978,421.294 220.5,424C 217.854,424.497 215.187,424.664 212.5,424.5C 212.5,421.167 212.5,417.833 212.5,414.5 Z"/></g>
<g><path style="opacity:1" fill="#11843d" d="M 144.5,414.5 C 158.75,413.752 165.75,420.419 165.5,434.5C 158.167,434.5 150.833,434.5 143.5,434.5C 143.651,437.85 145.485,439.516 149,439.5C 150.971,439.532 152.471,438.698 153.5,437C 157.211,436.175 160.878,436.341 164.5,437.5C 159.885,446.55 152.552,449.717 142.5,447C 132.811,440.764 130.311,432.264 135,421.5C 137.529,418.115 140.696,415.782 144.5,414.5 Z"/></g>
<g><path style="opacity:1" fill="#11843d" d="M 249.5,414.5 C 263.75,413.752 270.75,420.419 270.5,434.5C 263.167,434.5 255.833,434.5 248.5,434.5C 248.651,437.85 250.485,439.516 254,439.5C 255.971,439.532 257.471,438.698 258.5,437C 262.211,436.175 265.878,436.341 269.5,437.5C 264.885,446.55 257.552,449.717 247.5,447C 237.811,440.764 235.311,432.264 240,421.5C 242.529,418.115 245.696,415.782 249.5,414.5 Z"/></g>
<g><path style="opacity:1" fill="#12843d" d="M 284.5,414.5 C 291.889,413.794 298.056,416.127 303,421.5C 304.009,423.025 304.509,424.692 304.5,426.5C 298.155,426.412 292.155,425.579 286.5,424C 283.572,427.257 282.738,431.091 284,435.5C 284.465,436.931 285.299,438.097 286.5,439C 290.61,438.285 294.777,437.452 299,436.5C 300.833,436.833 302.667,437.167 304.5,437.5C 301.5,444.49 296.166,447.824 288.5,447.5C 281.377,447.551 276.544,444.218 274,437.5C 271.085,426.675 274.585,419.008 284.5,414.5 Z"/></g>
<g><path style="opacity:1" fill="#10833c" d="M 305.5,415.5 C 309.167,415.5 312.833,415.5 316.5,415.5C 318.16,422.314 320.327,428.981 323,435.5C 325.5,429.167 328,422.833 330.5,416.5C 333.768,415.513 337.102,415.18 340.5,415.5C 334.107,431.171 327.607,446.838 321,462.5C 317.606,463.456 314.106,463.789 310.5,463.5C 312.395,457.984 314.395,452.484 316.5,447C 312.728,436.516 309.061,426.016 305.5,415.5 Z"/></g>
<g><path style="opacity:1" fill="#11843d" d="M 353.5,414.5 C 361.018,413.576 367.185,415.909 372,421.5C 373.009,423.025 373.509,424.692 373.5,426.5C 367.155,426.412 361.155,425.579 355.5,424C 351.644,428.9 351.644,433.9 355.5,439C 361.246,437.401 367.246,436.567 373.5,436.5C 372.527,441.647 369.527,445.147 364.5,447C 347.524,449.022 340.357,441.522 343,424.5C 345.354,419.916 348.854,416.583 353.5,414.5 Z"/></g>
<g><path style="opacity:1" fill="#11843d" d="M 404.5,414.5 C 418.75,413.752 425.75,420.419 425.5,434.5C 418.167,434.5 410.833,434.5 403.5,434.5C 403.651,437.85 405.485,439.516 409,439.5C 410.971,439.532 412.471,438.698 413.5,437C 417.211,436.175 420.878,436.341 424.5,437.5C 419.885,446.55 412.552,449.717 402.5,447C 392.811,440.764 390.311,432.264 395,421.5C 397.529,418.115 400.696,415.782 404.5,414.5 Z"/></g>
<g><path style="opacity:1" fill="#69b488" d="M 195.5,423.5 C 187.167,423.5 178.833,423.5 170.5,423.5C 170.5,425.833 170.5,428.167 170.5,430.5C 178.833,430.5 187.167,430.5 195.5,430.5C 187.016,431.493 178.349,431.826 169.5,431.5C 169.5,428.5 169.5,425.5 169.5,422.5C 178.349,422.174 187.016,422.507 195.5,423.5 Z"/></g>
<g><path style="opacity:1" fill="#ecf5f0" d="M 145.5,423.5 C 147.857,423.337 150.19,423.503 152.5,424C 154.037,425.11 154.703,426.61 154.5,428.5C 150.833,428.5 147.167,428.5 143.5,428.5C 143.392,426.486 144.058,424.82 145.5,423.5 Z"/></g>
<g><path style="opacity:1" fill="#008036" d="M 195.5,423.5 C 195.5,425.833 195.5,428.167 195.5,430.5C 187.167,430.5 178.833,430.5 170.5,430.5C 170.5,428.167 170.5,425.833 170.5,423.5C 178.833,423.5 187.167,423.5 195.5,423.5 Z"/></g>
<g><path style="opacity:1" fill="#ecf5f0" d="M 250.5,423.5 C 252.857,423.337 255.19,423.503 257.5,424C 259.037,425.11 259.703,426.61 259.5,428.5C 255.833,428.5 252.167,428.5 248.5,428.5C 248.392,426.486 249.058,424.82 250.5,423.5 Z"/></g>
<g><path style="opacity:1" fill="#ecf5f0" d="M 405.5,423.5 C 407.857,423.337 410.19,423.503 412.5,424C 414.037,425.11 414.703,426.61 414.5,428.5C 410.833,428.5 407.167,428.5 403.5,428.5C 403.392,426.486 404.058,424.82 405.5,423.5 Z"/></g>
</svg>
